<?xml version="1.0" standalone="no"?><!DOCTYPE svg PUBLIC "-//W3C//DTD SVG 1.1//EN" "http://www.w3.org/Graphics/SVG/1.1/DTD/svg11.dtd"><svg t="1582276726246" class="icon" viewBox="0 0 1024 1024" version="1.1" xmlns="http://www.w3.org/2000/svg" p-id="4088" width="16" height="16" xmlns:xlink="http://www.w3.org/1999/xlink"><defs><style type="text/css"></style></defs><path d="M212.782 890.424a26.081 26.081 0 0 1-26.05-26.05 26.081 26.081 0 0 1 26.05-26.061h624.574a26.086 26.086 0 0 1 26.05 26.06 26.081 26.081 0 0 1-26.05 26.051H212.782z m486.682-500.193a25.748 25.748 0 0 1-18.37-7.629L571.97 273.48a26.081 26.081 0 0 1 0-36.844c4.92-4.915 11.458-7.629 18.421-7.629s13.502 2.709 18.422 7.63l109.123 109.117a25.907 25.907 0 0 1 7.618 18.432 25.892 25.892 0 0 1-7.66 18.421 25.861 25.861 0 0 1-18.39 7.624h-0.041z" fill="#2C2C2C" p-id="4089"></path><path d="M217.62 760.187a29.015 29.015 0 0 1-27.683-37.755l55.67-176.63a29.058 29.058 0 0 1 7.157-11.801l408.653-408.653a29.03 29.03 0 0 1 41.052 0l120.955 120.96a29.03 29.03 0 0 1 0 41.052L414.776 696.008a29.015 29.015 0 0 1-11.796 7.157L226.35 758.84a28.98 28.98 0 0 1-8.73 1.347z m81.219-190.162L262.062 686.71l116.685-36.782 383.104-383.1-79.903-79.902L298.84 570.025z" fill="#2C2C2C" p-id="4090"></path></svg>